%TF.GenerationSoftware,KiCad,Pcbnew,(6.0.0)*%
%TF.CreationDate,2024-11-06T11:00:43+02:00*%
%TF.ProjectId,second_pr.kicad_sch-1,7365636f-6e64-45f7-9072-2e6b69636164,0*%
%TF.SameCoordinates,Original*%
%TF.FileFunction,Legend,Top*%
%TF.FilePolarity,Positive*%
%FSLAX46Y46*%
G04 Gerber Fmt 4.6, Leading zero omitted, Abs format (unit mm)*
G04 Created by KiCad (PCBNEW (6.0.0)) date 2024-11-06 11:00:43*
%MOMM*%
%LPD*%
G01*
G04 APERTURE LIST*
%ADD10C,0.150000*%
%ADD11C,0.120000*%
G04 APERTURE END LIST*
D10*
%TO.C,MK1*%
X190460476Y-144772380D02*
X190460476Y-143772380D01*
X190793809Y-144486666D01*
X191127142Y-143772380D01*
X191127142Y-144772380D01*
X191603333Y-144772380D02*
X191603333Y-143772380D01*
X192174761Y-144772380D02*
X191746190Y-144200952D01*
X192174761Y-143772380D02*
X191603333Y-144343809D01*
X193127142Y-144772380D02*
X192555714Y-144772380D01*
X192841428Y-144772380D02*
X192841428Y-143772380D01*
X192746190Y-143915238D01*
X192650952Y-144010476D01*
X192555714Y-144058095D01*
%TO.C,R7*%
X268162380Y-152759166D02*
X267686190Y-153092500D01*
X268162380Y-153330595D02*
X267162380Y-153330595D01*
X267162380Y-152949642D01*
X267210000Y-152854404D01*
X267257619Y-152806785D01*
X267352857Y-152759166D01*
X267495714Y-152759166D01*
X267590952Y-152806785D01*
X267638571Y-152854404D01*
X267686190Y-152949642D01*
X267686190Y-153330595D01*
X267162380Y-152425833D02*
X267162380Y-151759166D01*
X268162380Y-152187738D01*
%TO.C,D1*%
X226591904Y-101173525D02*
X226591904Y-100173525D01*
X226830000Y-100173525D01*
X226972857Y-100221145D01*
X227068095Y-100316383D01*
X227115714Y-100411621D01*
X227163333Y-100602097D01*
X227163333Y-100744954D01*
X227115714Y-100935430D01*
X227068095Y-101030668D01*
X226972857Y-101125906D01*
X226830000Y-101173525D01*
X226591904Y-101173525D01*
X228115714Y-101173525D02*
X227544285Y-101173525D01*
X227830000Y-101173525D02*
X227830000Y-100173525D01*
X227734761Y-100316383D01*
X227639523Y-100411621D01*
X227544285Y-100459240D01*
%TO.C,R4*%
X232012380Y-152369166D02*
X231536190Y-152702500D01*
X232012380Y-152940595D02*
X231012380Y-152940595D01*
X231012380Y-152559642D01*
X231060000Y-152464404D01*
X231107619Y-152416785D01*
X231202857Y-152369166D01*
X231345714Y-152369166D01*
X231440952Y-152416785D01*
X231488571Y-152464404D01*
X231536190Y-152559642D01*
X231536190Y-152940595D01*
X231345714Y-151512023D02*
X232012380Y-151512023D01*
X230964761Y-151750119D02*
X231679047Y-151988214D01*
X231679047Y-151369166D01*
%TO.C,Q1*%
X217717619Y-132175238D02*
X217670000Y-132270476D01*
X217574761Y-132365714D01*
X217431904Y-132508571D01*
X217384285Y-132603809D01*
X217384285Y-132699047D01*
X217622380Y-132651428D02*
X217574761Y-132746666D01*
X217479523Y-132841904D01*
X217289047Y-132889523D01*
X216955714Y-132889523D01*
X216765238Y-132841904D01*
X216670000Y-132746666D01*
X216622380Y-132651428D01*
X216622380Y-132460952D01*
X216670000Y-132365714D01*
X216765238Y-132270476D01*
X216955714Y-132222857D01*
X217289047Y-132222857D01*
X217479523Y-132270476D01*
X217574761Y-132365714D01*
X217622380Y-132460952D01*
X217622380Y-132651428D01*
X217622380Y-131270476D02*
X217622380Y-131841904D01*
X217622380Y-131556190D02*
X216622380Y-131556190D01*
X216765238Y-131651428D01*
X216860476Y-131746666D01*
X216908095Y-131841904D01*
%TO.C,R5*%
X242762380Y-152566666D02*
X242286190Y-152900000D01*
X242762380Y-153138095D02*
X241762380Y-153138095D01*
X241762380Y-152757142D01*
X241810000Y-152661904D01*
X241857619Y-152614285D01*
X241952857Y-152566666D01*
X242095714Y-152566666D01*
X242190952Y-152614285D01*
X242238571Y-152661904D01*
X242286190Y-152757142D01*
X242286190Y-153138095D01*
X241762380Y-151661904D02*
X241762380Y-152138095D01*
X242238571Y-152185714D01*
X242190952Y-152138095D01*
X242143333Y-152042857D01*
X242143333Y-151804761D01*
X242190952Y-151709523D01*
X242238571Y-151661904D01*
X242333809Y-151614285D01*
X242571904Y-151614285D01*
X242667142Y-151661904D01*
X242714761Y-151709523D01*
X242762380Y-151804761D01*
X242762380Y-152042857D01*
X242714761Y-152138095D01*
X242667142Y-152185714D01*
%TO.C,R1*%
X195772380Y-97956666D02*
X195296190Y-98290000D01*
X195772380Y-98528095D02*
X194772380Y-98528095D01*
X194772380Y-98147142D01*
X194820000Y-98051904D01*
X194867619Y-98004285D01*
X194962857Y-97956666D01*
X195105714Y-97956666D01*
X195200952Y-98004285D01*
X195248571Y-98051904D01*
X195296190Y-98147142D01*
X195296190Y-98528095D01*
X195772380Y-97004285D02*
X195772380Y-97575714D01*
X195772380Y-97290000D02*
X194772380Y-97290000D01*
X194915238Y-97385238D01*
X195010476Y-97480476D01*
X195058095Y-97575714D01*
%TO.C,D4*%
X265961904Y-101572380D02*
X265961904Y-100572380D01*
X266200000Y-100572380D01*
X266342857Y-100620000D01*
X266438095Y-100715238D01*
X266485714Y-100810476D01*
X266533333Y-101000952D01*
X266533333Y-101143809D01*
X266485714Y-101334285D01*
X266438095Y-101429523D01*
X266342857Y-101524761D01*
X266200000Y-101572380D01*
X265961904Y-101572380D01*
X267390476Y-100905714D02*
X267390476Y-101572380D01*
X267152380Y-100524761D02*
X266914285Y-101239047D01*
X267533333Y-101239047D01*
%TO.C,R3*%
X213744880Y-97956666D02*
X213268690Y-98290000D01*
X213744880Y-98528095D02*
X212744880Y-98528095D01*
X212744880Y-98147142D01*
X212792500Y-98051904D01*
X212840119Y-98004285D01*
X212935357Y-97956666D01*
X213078214Y-97956666D01*
X213173452Y-98004285D01*
X213221071Y-98051904D01*
X213268690Y-98147142D01*
X213268690Y-98528095D01*
X212744880Y-97623333D02*
X212744880Y-97004285D01*
X213125833Y-97337619D01*
X213125833Y-97194761D01*
X213173452Y-97099523D01*
X213221071Y-97051904D01*
X213316309Y-97004285D01*
X213554404Y-97004285D01*
X213649642Y-97051904D01*
X213697261Y-97099523D01*
X213744880Y-97194761D01*
X213744880Y-97480476D01*
X213697261Y-97575714D01*
X213649642Y-97623333D01*
%TO.C,Q4*%
X254607619Y-132175238D02*
X254560000Y-132270476D01*
X254464761Y-132365714D01*
X254321904Y-132508571D01*
X254274285Y-132603809D01*
X254274285Y-132699047D01*
X254512380Y-132651428D02*
X254464761Y-132746666D01*
X254369523Y-132841904D01*
X254179047Y-132889523D01*
X253845714Y-132889523D01*
X253655238Y-132841904D01*
X253560000Y-132746666D01*
X253512380Y-132651428D01*
X253512380Y-132460952D01*
X253560000Y-132365714D01*
X253655238Y-132270476D01*
X253845714Y-132222857D01*
X254179047Y-132222857D01*
X254369523Y-132270476D01*
X254464761Y-132365714D01*
X254512380Y-132460952D01*
X254512380Y-132651428D01*
X253845714Y-131365714D02*
X254512380Y-131365714D01*
X253464761Y-131603809D02*
X254179047Y-131841904D01*
X254179047Y-131222857D01*
%TO.C,Q5*%
X269787619Y-132175238D02*
X269740000Y-132270476D01*
X269644761Y-132365714D01*
X269501904Y-132508571D01*
X269454285Y-132603809D01*
X269454285Y-132699047D01*
X269692380Y-132651428D02*
X269644761Y-132746666D01*
X269549523Y-132841904D01*
X269359047Y-132889523D01*
X269025714Y-132889523D01*
X268835238Y-132841904D01*
X268740000Y-132746666D01*
X268692380Y-132651428D01*
X268692380Y-132460952D01*
X268740000Y-132365714D01*
X268835238Y-132270476D01*
X269025714Y-132222857D01*
X269359047Y-132222857D01*
X269549523Y-132270476D01*
X269644761Y-132365714D01*
X269692380Y-132460952D01*
X269692380Y-132651428D01*
X268692380Y-131318095D02*
X268692380Y-131794285D01*
X269168571Y-131841904D01*
X269120952Y-131794285D01*
X269073333Y-131699047D01*
X269073333Y-131460952D01*
X269120952Y-131365714D01*
X269168571Y-131318095D01*
X269263809Y-131270476D01*
X269501904Y-131270476D01*
X269597142Y-131318095D01*
X269644761Y-131365714D01*
X269692380Y-131460952D01*
X269692380Y-131699047D01*
X269644761Y-131794285D01*
X269597142Y-131841904D01*
%TO.C,R6*%
X254192380Y-152566666D02*
X253716190Y-152900000D01*
X254192380Y-153138095D02*
X253192380Y-153138095D01*
X253192380Y-152757142D01*
X253240000Y-152661904D01*
X253287619Y-152614285D01*
X253382857Y-152566666D01*
X253525714Y-152566666D01*
X253620952Y-152614285D01*
X253668571Y-152661904D01*
X253716190Y-152757142D01*
X253716190Y-153138095D01*
X253192380Y-151709523D02*
X253192380Y-151900000D01*
X253240000Y-151995238D01*
X253287619Y-152042857D01*
X253430476Y-152138095D01*
X253620952Y-152185714D01*
X254001904Y-152185714D01*
X254097142Y-152138095D01*
X254144761Y-152090476D01*
X254192380Y-151995238D01*
X254192380Y-151804761D01*
X254144761Y-151709523D01*
X254097142Y-151661904D01*
X254001904Y-151614285D01*
X253763809Y-151614285D01*
X253668571Y-151661904D01*
X253620952Y-151709523D01*
X253573333Y-151804761D01*
X253573333Y-151995238D01*
X253620952Y-152090476D01*
X253668571Y-152138095D01*
X253763809Y-152185714D01*
%TO.C,Q3*%
X244387619Y-132175238D02*
X244340000Y-132270476D01*
X244244761Y-132365714D01*
X244101904Y-132508571D01*
X244054285Y-132603809D01*
X244054285Y-132699047D01*
X244292380Y-132651428D02*
X244244761Y-132746666D01*
X244149523Y-132841904D01*
X243959047Y-132889523D01*
X243625714Y-132889523D01*
X243435238Y-132841904D01*
X243340000Y-132746666D01*
X243292380Y-132651428D01*
X243292380Y-132460952D01*
X243340000Y-132365714D01*
X243435238Y-132270476D01*
X243625714Y-132222857D01*
X243959047Y-132222857D01*
X244149523Y-132270476D01*
X244244761Y-132365714D01*
X244292380Y-132460952D01*
X244292380Y-132651428D01*
X243292380Y-131889523D02*
X243292380Y-131270476D01*
X243673333Y-131603809D01*
X243673333Y-131460952D01*
X243720952Y-131365714D01*
X243768571Y-131318095D01*
X243863809Y-131270476D01*
X244101904Y-131270476D01*
X244197142Y-131318095D01*
X244244761Y-131365714D01*
X244292380Y-131460952D01*
X244292380Y-131746666D01*
X244244761Y-131841904D01*
X244197142Y-131889523D01*
%TO.C,Q2*%
X231437619Y-132175238D02*
X231390000Y-132270476D01*
X231294761Y-132365714D01*
X231151904Y-132508571D01*
X231104285Y-132603809D01*
X231104285Y-132699047D01*
X231342380Y-132651428D02*
X231294761Y-132746666D01*
X231199523Y-132841904D01*
X231009047Y-132889523D01*
X230675714Y-132889523D01*
X230485238Y-132841904D01*
X230390000Y-132746666D01*
X230342380Y-132651428D01*
X230342380Y-132460952D01*
X230390000Y-132365714D01*
X230485238Y-132270476D01*
X230675714Y-132222857D01*
X231009047Y-132222857D01*
X231199523Y-132270476D01*
X231294761Y-132365714D01*
X231342380Y-132460952D01*
X231342380Y-132651428D01*
X230437619Y-131841904D02*
X230390000Y-131794285D01*
X230342380Y-131699047D01*
X230342380Y-131460952D01*
X230390000Y-131365714D01*
X230437619Y-131318095D01*
X230532857Y-131270476D01*
X230628095Y-131270476D01*
X230770952Y-131318095D01*
X231342380Y-131889523D01*
X231342380Y-131270476D01*
%TO.C,R2*%
X204854880Y-97956666D02*
X204378690Y-98290000D01*
X204854880Y-98528095D02*
X203854880Y-98528095D01*
X203854880Y-98147142D01*
X203902500Y-98051904D01*
X203950119Y-98004285D01*
X204045357Y-97956666D01*
X204188214Y-97956666D01*
X204283452Y-98004285D01*
X204331071Y-98051904D01*
X204378690Y-98147142D01*
X204378690Y-98528095D01*
X203950119Y-97575714D02*
X203902500Y-97528095D01*
X203854880Y-97432857D01*
X203854880Y-97194761D01*
X203902500Y-97099523D01*
X203950119Y-97051904D01*
X204045357Y-97004285D01*
X204140595Y-97004285D01*
X204283452Y-97051904D01*
X204854880Y-97623333D01*
X204854880Y-97004285D01*
%TO.C,D3*%
X253261904Y-100782380D02*
X253261904Y-99782380D01*
X253500000Y-99782380D01*
X253642857Y-99830000D01*
X253738095Y-99925238D01*
X253785714Y-100020476D01*
X253833333Y-100210952D01*
X253833333Y-100353809D01*
X253785714Y-100544285D01*
X253738095Y-100639523D01*
X253642857Y-100734761D01*
X253500000Y-100782380D01*
X253261904Y-100782380D01*
X254166666Y-99782380D02*
X254785714Y-99782380D01*
X254452380Y-100163333D01*
X254595238Y-100163333D01*
X254690476Y-100210952D01*
X254738095Y-100258571D01*
X254785714Y-100353809D01*
X254785714Y-100591904D01*
X254738095Y-100687142D01*
X254690476Y-100734761D01*
X254595238Y-100782380D01*
X254309523Y-100782380D01*
X254214285Y-100734761D01*
X254166666Y-100687142D01*
%TO.C,D2*%
X238457476Y-112692380D02*
X238457476Y-111692380D01*
X238695572Y-111692380D01*
X238838429Y-111740000D01*
X238933667Y-111835238D01*
X238981286Y-111930476D01*
X239028905Y-112120952D01*
X239028905Y-112263809D01*
X238981286Y-112454285D01*
X238933667Y-112549523D01*
X238838429Y-112644761D01*
X238695572Y-112692380D01*
X238457476Y-112692380D01*
X239409857Y-111787619D02*
X239457476Y-111740000D01*
X239552714Y-111692380D01*
X239790810Y-111692380D01*
X239886048Y-111740000D01*
X239933667Y-111787619D01*
X239981286Y-111882857D01*
X239981286Y-111978095D01*
X239933667Y-112120952D01*
X239362238Y-112692380D01*
X239981286Y-112692380D01*
%TO.C,C1*%
X194427142Y-128641666D02*
X194474761Y-128689285D01*
X194522380Y-128832142D01*
X194522380Y-128927380D01*
X194474761Y-129070238D01*
X194379523Y-129165476D01*
X194284285Y-129213095D01*
X194093809Y-129260714D01*
X193950952Y-129260714D01*
X193760476Y-129213095D01*
X193665238Y-129165476D01*
X193570000Y-129070238D01*
X193522380Y-128927380D01*
X193522380Y-128832142D01*
X193570000Y-128689285D01*
X193617619Y-128641666D01*
X194522380Y-127689285D02*
X194522380Y-128260714D01*
X194522380Y-127975000D02*
X193522380Y-127975000D01*
X193665238Y-128070238D01*
X193760476Y-128165476D01*
X193808095Y-128260714D01*
D11*
%TO.C,MK1*%
X193870000Y-147320000D02*
G75*
G03*
X193870000Y-147320000I-2100000J0D01*
G01*
%TO.C,R7*%
X266785000Y-151868763D02*
X266785000Y-153316237D01*
X264075000Y-151868763D02*
X264075000Y-153316237D01*
%TO.C,D1*%
X223270000Y-104139145D02*
X223270000Y-108423145D01*
X223270000Y-108422290D02*
G75*
G03*
X231920000Y-106280659I4060000J2141145D01*
G01*
X231920000Y-106281631D02*
G75*
G03*
X223270000Y-104140000I-4590000J486D01*
G01*
X231330000Y-106281145D02*
G75*
G03*
X231330000Y-106281145I-4000000J0D01*
G01*
%TO.C,R4*%
X229955000Y-151868763D02*
X229955000Y-153316237D01*
X227245000Y-151868763D02*
X227245000Y-153316237D01*
%TO.C,Q1*%
X211510000Y-130280000D02*
X211510000Y-133880000D01*
X211521522Y-133918478D02*
G75*
G03*
X215960000Y-132080000I1838478J1838478D01*
G01*
X215960001Y-132080000D02*
G75*
G03*
X211521522Y-130241522I-2600001J0D01*
G01*
%TO.C,R5*%
X238675000Y-151676263D02*
X238675000Y-153123737D01*
X241385000Y-151676263D02*
X241385000Y-153123737D01*
%TO.C,R1*%
X194395000Y-97066263D02*
X194395000Y-98513737D01*
X191685000Y-97066263D02*
X191685000Y-98513737D01*
%TO.C,D4*%
X262640000Y-104538000D02*
X262640000Y-108822000D01*
X262640000Y-108821145D02*
G75*
G03*
X271290000Y-106679514I4060000J2141145D01*
G01*
X271290000Y-106680486D02*
G75*
G03*
X262640000Y-104538855I-4590000J486D01*
G01*
X270700000Y-106680000D02*
G75*
G03*
X270700000Y-106680000I-4000000J0D01*
G01*
%TO.C,R3*%
X209657500Y-97066263D02*
X209657500Y-98513737D01*
X212367500Y-97066263D02*
X212367500Y-98513737D01*
%TO.C,Q4*%
X249610000Y-130280000D02*
X249610000Y-133880000D01*
X254060001Y-132080000D02*
G75*
G03*
X249621522Y-130241522I-2600001J0D01*
G01*
X249621522Y-133918478D02*
G75*
G03*
X254060000Y-132080000I1838478J1838478D01*
G01*
%TO.C,Q5*%
X263580000Y-130280000D02*
X263580000Y-133880000D01*
X268030001Y-132080000D02*
G75*
G03*
X263591522Y-130241522I-2600001J0D01*
G01*
X263591522Y-133918478D02*
G75*
G03*
X268030000Y-132080000I1838478J1838478D01*
G01*
%TO.C,R6*%
X252815000Y-151676263D02*
X252815000Y-153123737D01*
X250105000Y-151676263D02*
X250105000Y-153123737D01*
%TO.C,Q3*%
X238180000Y-130280000D02*
X238180000Y-133880000D01*
X242630001Y-132080000D02*
G75*
G03*
X238191522Y-130241522I-2600001J0D01*
G01*
X238191522Y-133918478D02*
G75*
G03*
X242630000Y-132080000I1838478J1838478D01*
G01*
%TO.C,Q2*%
X225480000Y-130280000D02*
X225480000Y-133880000D01*
X229930001Y-132080000D02*
G75*
G03*
X225491522Y-130241522I-2600001J0D01*
G01*
X225491522Y-133918478D02*
G75*
G03*
X229930000Y-132080000I1838478J1838478D01*
G01*
%TO.C,R2*%
X200767500Y-97066263D02*
X200767500Y-98513737D01*
X203477500Y-97066263D02*
X203477500Y-98513737D01*
%TO.C,D3*%
X249940000Y-104538000D02*
X249940000Y-108822000D01*
X258590000Y-106680486D02*
G75*
G03*
X249940000Y-104538855I-4590000J486D01*
G01*
X249940000Y-108821145D02*
G75*
G03*
X258590000Y-106679514I4060000J2141145D01*
G01*
X258000000Y-106680000D02*
G75*
G03*
X258000000Y-106680000I-4000000J0D01*
G01*
%TO.C,D2*%
X243255572Y-108822000D02*
X243255572Y-104538000D01*
X234605572Y-106679514D02*
G75*
G03*
X243255572Y-108821145I4590000J-486D01*
G01*
X243255572Y-104538855D02*
G75*
G03*
X234605572Y-106680486I-4060000J-2141145D01*
G01*
X243195572Y-106680000D02*
G75*
G03*
X243195572Y-106680000I-4000000J0D01*
G01*
%TO.C,C1*%
X193130000Y-127763748D02*
X193130000Y-129186252D01*
X190410000Y-127763748D02*
X190410000Y-129186252D01*
%TD*%
M02*
