%TF.GenerationSoftware,KiCad,Pcbnew,(6.0.0)*%
%TF.CreationDate,2024-11-06T11:00:43+02:00*%
%TF.ProjectId,second_pr.kicad_sch-1,7365636f-6e64-45f7-9072-2e6b69636164,0*%
%TF.SameCoordinates,Original*%
%TF.FileFunction,Copper,L2,Bot*%
%TF.FilePolarity,Positive*%
%FSLAX46Y46*%
G04 Gerber Fmt 4.6, Leading zero omitted, Abs format (unit mm)*
G04 Created by KiCad (PCBNEW (6.0.0)) date 2024-11-06 11:00:43*
%MOMM*%
%LPD*%
G01*
G04 APERTURE LIST*
%TA.AperFunction,ComponentPad*%
%ADD10R,1.800000X1.800000*%
%TD*%
%TA.AperFunction,ComponentPad*%
%ADD11C,1.800000*%
%TD*%
%TA.AperFunction,ComponentPad*%
%ADD12R,1.500000X1.050000*%
%TD*%
%TA.AperFunction,ComponentPad*%
%ADD13O,1.500000X1.050000*%
%TD*%
%TA.AperFunction,ViaPad*%
%ADD14C,0.800000*%
%TD*%
%TA.AperFunction,ViaPad*%
%ADD15C,2.000000*%
%TD*%
%TA.AperFunction,Conductor*%
%ADD16C,0.250000*%
%TD*%
G04 APERTURE END LIST*
D10*
%TO.P,D1,1,K*%
%TO.N,Net-(D1-Pad1)*%
X226060000Y-106281145D03*
D11*
%TO.P,D1,2,A*%
%TO.N,+9V*%
X228600000Y-106281145D03*
%TD*%
D12*
%TO.P,Q1,1,C*%
%TO.N,Net-(Q1-Pad1)*%
X213360000Y-130810000D03*
D13*
%TO.P,Q1,2,B*%
%TO.N,Net-(C1-Pad2)*%
X213360000Y-132080000D03*
%TO.P,Q1,3,E*%
%TO.N,GND*%
X213360000Y-133350000D03*
%TD*%
D10*
%TO.P,D4,1,K*%
%TO.N,Net-(D4-Pad1)*%
X265430000Y-106680000D03*
D11*
%TO.P,D4,2,A*%
%TO.N,+9V*%
X267970000Y-106680000D03*
%TD*%
D12*
%TO.P,Q4,1,C*%
%TO.N,Net-(D3-Pad1)*%
X251460000Y-130810000D03*
D13*
%TO.P,Q4,2,B*%
%TO.N,Net-(Q1-Pad1)*%
X251460000Y-132080000D03*
%TO.P,Q4,3,E*%
%TO.N,Net-(Q4-Pad3)*%
X251460000Y-133350000D03*
%TD*%
D12*
%TO.P,Q5,1,C*%
%TO.N,Net-(D4-Pad1)*%
X265430000Y-130810000D03*
D13*
%TO.P,Q5,2,B*%
%TO.N,Net-(Q1-Pad1)*%
X265430000Y-132080000D03*
%TO.P,Q5,3,E*%
%TO.N,Net-(Q5-Pad3)*%
X265430000Y-133350000D03*
%TD*%
D12*
%TO.P,Q3,1,C*%
%TO.N,Net-(D2-Pad1)*%
X240030000Y-130810000D03*
D13*
%TO.P,Q3,2,B*%
%TO.N,Net-(Q1-Pad1)*%
X240030000Y-132080000D03*
%TO.P,Q3,3,E*%
%TO.N,Net-(Q3-Pad3)*%
X240030000Y-133350000D03*
%TD*%
D12*
%TO.P,Q2,1,C*%
%TO.N,Net-(D1-Pad1)*%
X227330000Y-130810000D03*
D13*
%TO.P,Q2,2,B*%
%TO.N,Net-(Q1-Pad1)*%
X227330000Y-132080000D03*
%TO.P,Q2,3,E*%
%TO.N,Net-(Q2-Pad3)*%
X227330000Y-133350000D03*
%TD*%
D10*
%TO.P,D3,1,K*%
%TO.N,Net-(D3-Pad1)*%
X252730000Y-106680000D03*
D11*
%TO.P,D3,2,A*%
%TO.N,+9V*%
X255270000Y-106680000D03*
%TD*%
D10*
%TO.P,D2,1,K*%
%TO.N,Net-(D2-Pad1)*%
X240465572Y-106680000D03*
D11*
%TO.P,D2,2,A*%
%TO.N,+9V*%
X237925572Y-106680000D03*
%TD*%
D14*
%TO.N,Net-(C1-Pad2)*%
X191770000Y-137160000D03*
X191770000Y-147320000D03*
D15*
%TO.N,+9V*%
X184150000Y-158750000D03*
%TO.N,GND*%
X186690000Y-157480000D03*
%TD*%
D16*
%TO.N,Net-(C1-Pad2)*%
X191770000Y-147320000D02*
X191770000Y-137160000D01*
%TO.N,GND*%
X186690000Y-152400000D02*
X191257693Y-147832307D01*
X186690000Y-157480000D02*
X186690000Y-152400000D01*
%TD*%
%TA.AperFunction,Conductor*%
%TO.N,GND*%
G36*
X278834121Y-88158002D02*
G01*
X278880614Y-88211658D01*
X278892000Y-88264000D01*
X278892000Y-164466000D01*
X278871998Y-164534121D01*
X278818342Y-164580614D01*
X278766000Y-164592000D01*
X178434000Y-164592000D01*
X178365879Y-164571998D01*
X178319386Y-164518342D01*
X178308000Y-164466000D01*
X178308000Y-158750000D01*
X182636835Y-158750000D01*
X182655465Y-158986711D01*
X182710895Y-159217594D01*
X182801760Y-159436963D01*
X182804346Y-159441183D01*
X182923241Y-159635202D01*
X182923245Y-159635208D01*
X182925824Y-159639416D01*
X183080031Y-159819969D01*
X183260584Y-159974176D01*
X183264792Y-159976755D01*
X183264798Y-159976759D01*
X183458817Y-160095654D01*
X183463037Y-160098240D01*
X183467607Y-160100133D01*
X183467611Y-160100135D01*
X183677833Y-160187211D01*
X183682406Y-160189105D01*
X183762609Y-160208360D01*
X183908476Y-160243380D01*
X183908482Y-160243381D01*
X183913289Y-160244535D01*
X184150000Y-160263165D01*
X184386711Y-160244535D01*
X184391518Y-160243381D01*
X184391524Y-160243380D01*
X184537391Y-160208360D01*
X184617594Y-160189105D01*
X184622167Y-160187211D01*
X184832389Y-160100135D01*
X184832393Y-160100133D01*
X184836963Y-160098240D01*
X184841183Y-160095654D01*
X185035202Y-159976759D01*
X185035208Y-159976755D01*
X185039416Y-159974176D01*
X185219969Y-159819969D01*
X185374176Y-159639416D01*
X185376755Y-159635208D01*
X185376759Y-159635202D01*
X185495654Y-159441183D01*
X185498240Y-159436963D01*
X185589105Y-159217594D01*
X185644535Y-158986711D01*
X185663165Y-158750000D01*
X185644535Y-158513289D01*
X185589105Y-158282406D01*
X185498240Y-158063037D01*
X185495654Y-158058817D01*
X185376759Y-157864798D01*
X185376755Y-157864792D01*
X185374176Y-157860584D01*
X185219969Y-157680031D01*
X185039416Y-157525824D01*
X185035208Y-157523245D01*
X185035202Y-157523241D01*
X184841183Y-157404346D01*
X184836963Y-157401760D01*
X184832393Y-157399867D01*
X184832389Y-157399865D01*
X184622167Y-157312789D01*
X184622165Y-157312788D01*
X184617594Y-157310895D01*
X184537391Y-157291640D01*
X184391524Y-157256620D01*
X184391518Y-157256619D01*
X184386711Y-157255465D01*
X184150000Y-157236835D01*
X183913289Y-157255465D01*
X183908482Y-157256619D01*
X183908476Y-157256620D01*
X183762609Y-157291640D01*
X183682406Y-157310895D01*
X183677835Y-157312788D01*
X183677833Y-157312789D01*
X183467611Y-157399865D01*
X183467607Y-157399867D01*
X183463037Y-157401760D01*
X183458817Y-157404346D01*
X183264798Y-157523241D01*
X183264792Y-157523245D01*
X183260584Y-157525824D01*
X183080031Y-157680031D01*
X182925824Y-157860584D01*
X182923245Y-157864792D01*
X182923241Y-157864798D01*
X182804346Y-158058817D01*
X182801760Y-158063037D01*
X182710895Y-158282406D01*
X182655465Y-158513289D01*
X182636835Y-158750000D01*
X178308000Y-158750000D01*
X178308000Y-147320000D01*
X190856496Y-147320000D01*
X190876458Y-147509928D01*
X190935473Y-147691556D01*
X191030960Y-147856944D01*
X191158747Y-147998866D01*
X191313248Y-148111118D01*
X191319276Y-148113802D01*
X191319278Y-148113803D01*
X191481681Y-148186109D01*
X191487712Y-148188794D01*
X191581112Y-148208647D01*
X191668056Y-148227128D01*
X191668061Y-148227128D01*
X191674513Y-148228500D01*
X191865487Y-148228500D01*
X191871939Y-148227128D01*
X191871944Y-148227128D01*
X191958888Y-148208647D01*
X192052288Y-148188794D01*
X192058319Y-148186109D01*
X192220722Y-148113803D01*
X192220724Y-148113802D01*
X192226752Y-148111118D01*
X192381253Y-147998866D01*
X192509040Y-147856944D01*
X192604527Y-147691556D01*
X192663542Y-147509928D01*
X192683504Y-147320000D01*
X192663542Y-147130072D01*
X192604527Y-146948444D01*
X192509040Y-146783056D01*
X192435863Y-146701785D01*
X192405147Y-146637779D01*
X192403500Y-146617476D01*
X192403500Y-137862524D01*
X192423502Y-137794403D01*
X192435858Y-137778221D01*
X192509040Y-137696944D01*
X192604527Y-137531556D01*
X192663542Y-137349928D01*
X192683504Y-137160000D01*
X192663542Y-136970072D01*
X192604527Y-136788444D01*
X192509040Y-136623056D01*
X192381253Y-136481134D01*
X192226752Y-136368882D01*
X192220724Y-136366198D01*
X192220722Y-136366197D01*
X192058319Y-136293891D01*
X192058318Y-136293891D01*
X192052288Y-136291206D01*
X191958888Y-136271353D01*
X191871944Y-136252872D01*
X191871939Y-136252872D01*
X191865487Y-136251500D01*
X191674513Y-136251500D01*
X191668061Y-136252872D01*
X191668056Y-136252872D01*
X191581112Y-136271353D01*
X191487712Y-136291206D01*
X191481682Y-136293891D01*
X191481681Y-136293891D01*
X191319278Y-136366197D01*
X191319276Y-136366198D01*
X191313248Y-136368882D01*
X191158747Y-136481134D01*
X191030960Y-136623056D01*
X190935473Y-136788444D01*
X190876458Y-136970072D01*
X190856496Y-137160000D01*
X190876458Y-137349928D01*
X190935473Y-137531556D01*
X191030960Y-137696944D01*
X191104137Y-137778215D01*
X191134853Y-137842221D01*
X191136500Y-137862524D01*
X191136500Y-146617476D01*
X191116498Y-146685597D01*
X191104142Y-146701779D01*
X191030960Y-146783056D01*
X190935473Y-146948444D01*
X190876458Y-147130072D01*
X190856496Y-147320000D01*
X178308000Y-147320000D01*
X178308000Y-133615768D01*
X212136363Y-133615768D01*
X212170846Y-133732932D01*
X212175439Y-133744300D01*
X212263586Y-133912911D01*
X212270302Y-133923173D01*
X212389515Y-134071443D01*
X212398103Y-134080213D01*
X212543838Y-134202499D01*
X212553969Y-134209437D01*
X212720692Y-134301094D01*
X212731962Y-134305924D01*
X212913315Y-134363452D01*
X212925309Y-134366002D01*
X213073350Y-134382607D01*
X213080374Y-134383000D01*
X213087885Y-134383000D01*
X213103124Y-134378525D01*
X213104329Y-134377135D01*
X213106000Y-134369452D01*
X213106000Y-134364885D01*
X213614000Y-134364885D01*
X213618475Y-134380124D01*
X213619865Y-134381329D01*
X213627548Y-134383000D01*
X213632890Y-134383000D01*
X213639035Y-134382700D01*
X213780481Y-134368830D01*
X213792519Y-134366447D01*
X213974651Y-134311458D01*
X213985993Y-134306783D01*
X214153977Y-134217465D01*
X214164193Y-134210678D01*
X214311634Y-134090428D01*
X214320338Y-134081784D01*
X214441610Y-133935191D01*
X214448470Y-133925020D01*
X214538962Y-133757658D01*
X214543714Y-133746353D01*
X214582422Y-133621308D01*
X214582628Y-133607205D01*
X214575873Y-133604000D01*
X213632115Y-133604000D01*
X213616876Y-133608475D01*
X213615671Y-133609865D01*
X213614000Y-133617548D01*
X213614000Y-134364885D01*
X213106000Y-134364885D01*
X213106000Y-133622115D01*
X213101525Y-133606876D01*
X213100135Y-133605671D01*
X213092452Y-133604000D01*
X212151014Y-133604000D01*
X212137483Y-133607973D01*
X212136363Y-133615768D01*
X178308000Y-133615768D01*
X178308000Y-133342750D01*
X226066524Y-133342750D01*
X226084894Y-133544596D01*
X226086632Y-133550502D01*
X226086633Y-133550506D01*
X226107709Y-133622115D01*
X226142119Y-133739029D01*
X226144972Y-133744486D01*
X226144973Y-133744489D01*
X226149127Y-133752435D01*
X226236019Y-133918645D01*
X226239879Y-133923445D01*
X226239879Y-133923446D01*
X226245729Y-133930722D01*
X226363019Y-134076601D01*
X226518281Y-134206881D01*
X226523673Y-134209845D01*
X226523677Y-134209848D01*
X226689654Y-134301094D01*
X226695891Y-134304523D01*
X226889084Y-134365807D01*
X226895201Y-134366493D01*
X226895205Y-134366494D01*
X226969348Y-134374810D01*
X227046817Y-134383500D01*
X227606004Y-134383500D01*
X227756713Y-134368723D01*
X227950742Y-134310142D01*
X228129698Y-134214990D01*
X228145014Y-134202499D01*
X228281987Y-134090785D01*
X228286763Y-134086890D01*
X228299542Y-134071443D01*
X228412027Y-133935472D01*
X228412029Y-133935469D01*
X228415956Y-133930722D01*
X228512356Y-133752435D01*
X228557787Y-133605671D01*
X228570468Y-133564707D01*
X228570469Y-133564704D01*
X228572290Y-133558820D01*
X228593476Y-133357250D01*
X228592156Y-133342750D01*
X238766524Y-133342750D01*
X238784894Y-133544596D01*
X238786632Y-133550502D01*
X238786633Y-133550506D01*
X238807709Y-133622115D01*
X238842119Y-133739029D01*
X238844972Y-133744486D01*
X238844973Y-133744489D01*
X238849127Y-133752435D01*
X238936019Y-133918645D01*
X238939879Y-133923445D01*
X238939879Y-133923446D01*
X238945729Y-133930722D01*
X239063019Y-134076601D01*
X239218281Y-134206881D01*
X239223673Y-134209845D01*
X239223677Y-134209848D01*
X239389654Y-134301094D01*
X239395891Y-134304523D01*
X239589084Y-134365807D01*
X239595201Y-134366493D01*
X239595205Y-134366494D01*
X239669348Y-134374810D01*
X239746817Y-134383500D01*
X240306004Y-134383500D01*
X240456713Y-134368723D01*
X240650742Y-134310142D01*
X240829698Y-134214990D01*
X240845014Y-134202499D01*
X240981987Y-134090785D01*
X240986763Y-134086890D01*
X240999542Y-134071443D01*
X241112027Y-133935472D01*
X241112029Y-133935469D01*
X241115956Y-133930722D01*
X241212356Y-133752435D01*
X241257787Y-133605671D01*
X241270468Y-133564707D01*
X241270469Y-133564704D01*
X241272290Y-133558820D01*
X241293476Y-133357250D01*
X241292156Y-133342750D01*
X250196524Y-133342750D01*
X250214894Y-133544596D01*
X250216632Y-133550502D01*
X250216633Y-133550506D01*
X250237709Y-133622115D01*
X250272119Y-133739029D01*
X250274972Y-133744486D01*
X250274973Y-133744489D01*
X250279127Y-133752435D01*
X250366019Y-133918645D01*
X250369879Y-133923445D01*
X250369879Y-133923446D01*
X250375729Y-133930722D01*
X250493019Y-134076601D01*
X250648281Y-134206881D01*
X250653673Y-134209845D01*
X250653677Y-134209848D01*
X250819654Y-134301094D01*
X250825891Y-134304523D01*
X251019084Y-134365807D01*
X251025201Y-134366493D01*
X251025205Y-134366494D01*
X251099348Y-134374810D01*
X251176817Y-134383500D01*
X251736004Y-134383500D01*
X251886713Y-134368723D01*
X252080742Y-134310142D01*
X252259698Y-134214990D01*
X252275014Y-134202499D01*
X252411987Y-134090785D01*
X252416763Y-134086890D01*
X252429542Y-134071443D01*
X252542027Y-133935472D01*
X252542029Y-133935469D01*
X252545956Y-133930722D01*
X252642356Y-133752435D01*
X252687787Y-133605671D01*
X252700468Y-133564707D01*
X252700469Y-133564704D01*
X252702290Y-133558820D01*
X252723476Y-133357250D01*
X252722156Y-133342750D01*
X264166524Y-133342750D01*
X264184894Y-133544596D01*
X264186632Y-133550502D01*
X264186633Y-133550506D01*
X264207709Y-133622115D01*
X264242119Y-133739029D01*
X264244972Y-133744486D01*
X264244973Y-133744489D01*
X264249127Y-133752435D01*
X264336019Y-133918645D01*
X264339879Y-133923445D01*
X264339879Y-133923446D01*
X264345729Y-133930722D01*
X264463019Y-134076601D01*
X264618281Y-134206881D01*
X264623673Y-134209845D01*
X264623677Y-134209848D01*
X264789654Y-134301094D01*
X264795891Y-134304523D01*
X264989084Y-134365807D01*
X264995201Y-134366493D01*
X264995205Y-134366494D01*
X265069348Y-134374810D01*
X265146817Y-134383500D01*
X265706004Y-134383500D01*
X265856713Y-134368723D01*
X266050742Y-134310142D01*
X266229698Y-134214990D01*
X266245014Y-134202499D01*
X266381987Y-134090785D01*
X266386763Y-134086890D01*
X266399542Y-134071443D01*
X266512027Y-133935472D01*
X266512029Y-133935469D01*
X266515956Y-133930722D01*
X266612356Y-133752435D01*
X266657787Y-133605671D01*
X266670468Y-133564707D01*
X266670469Y-133564704D01*
X266672290Y-133558820D01*
X266693476Y-133357250D01*
X266675106Y-133155404D01*
X266662685Y-133113199D01*
X266619620Y-132966880D01*
X266617881Y-132960971D01*
X266614053Y-132953647D01*
X266537179Y-132806601D01*
X266523981Y-132781355D01*
X266524016Y-132781337D01*
X266504111Y-132715559D01*
X266519271Y-132654591D01*
X266609426Y-132487853D01*
X266612356Y-132482435D01*
X266672290Y-132288820D01*
X266693476Y-132087250D01*
X266675106Y-131885404D01*
X266669188Y-131865294D01*
X266619620Y-131696879D01*
X266619619Y-131696877D01*
X266617881Y-131690971D01*
X266618740Y-131690718D01*
X266612286Y-131625338D01*
X266625452Y-131588594D01*
X266630615Y-131581705D01*
X266633768Y-131573296D01*
X266678971Y-131452715D01*
X266681745Y-131445316D01*
X266688500Y-131383134D01*
X266688500Y-130236866D01*
X266681745Y-130174684D01*
X266630615Y-130038295D01*
X266543261Y-129921739D01*
X266426705Y-129834385D01*
X266290316Y-129783255D01*
X266228134Y-129776500D01*
X264631866Y-129776500D01*
X264569684Y-129783255D01*
X264433295Y-129834385D01*
X264316739Y-129921739D01*
X264229385Y-130038295D01*
X264178255Y-130174684D01*
X264171500Y-130236866D01*
X264171500Y-131383134D01*
X264178255Y-131445316D01*
X264181029Y-131452715D01*
X264226232Y-131573296D01*
X264226234Y-131573299D01*
X264229385Y-131581705D01*
X264234773Y-131588894D01*
X264234906Y-131589137D01*
X264250076Y-131658494D01*
X264244752Y-131686907D01*
X264187710Y-131871180D01*
X264166524Y-132072750D01*
X264184894Y-132274596D01*
X264242119Y-132469029D01*
X264244972Y-132474486D01*
X264244973Y-132474489D01*
X264249127Y-132482435D01*
X264335923Y-132648460D01*
X264335923Y-132648462D01*
X264336019Y-132648645D01*
X264335984Y-132648663D01*
X264355889Y-132714441D01*
X264340729Y-132775409D01*
X264247644Y-132947565D01*
X264245126Y-132955700D01*
X264196372Y-133113199D01*
X264187710Y-133141180D01*
X264166524Y-133342750D01*
X252722156Y-133342750D01*
X252705106Y-133155404D01*
X252692685Y-133113199D01*
X252649620Y-132966880D01*
X252647881Y-132960971D01*
X252644053Y-132953647D01*
X252567179Y-132806601D01*
X252553981Y-132781355D01*
X252554016Y-132781337D01*
X252534111Y-132715559D01*
X252549271Y-132654591D01*
X252639426Y-132487853D01*
X252642356Y-132482435D01*
X252702290Y-132288820D01*
X252723476Y-132087250D01*
X252705106Y-131885404D01*
X252699188Y-131865294D01*
X252649620Y-131696879D01*
X252649619Y-131696877D01*
X252647881Y-131690971D01*
X252648740Y-131690718D01*
X252642286Y-131625338D01*
X252655452Y-131588594D01*
X252660615Y-131581705D01*
X252663768Y-131573296D01*
X252708971Y-131452715D01*
X252711745Y-131445316D01*
X252718500Y-131383134D01*
X252718500Y-130236866D01*
X252711745Y-130174684D01*
X252660615Y-130038295D01*
X252573261Y-129921739D01*
X252456705Y-129834385D01*
X252320316Y-129783255D01*
X252258134Y-129776500D01*
X250661866Y-129776500D01*
X250599684Y-129783255D01*
X250463295Y-129834385D01*
X250346739Y-129921739D01*
X250259385Y-130038295D01*
X250208255Y-130174684D01*
X250201500Y-130236866D01*
X250201500Y-131383134D01*
X250208255Y-131445316D01*
X250211029Y-131452715D01*
X250256232Y-131573296D01*
X250256234Y-131573299D01*
X250259385Y-131581705D01*
X250264773Y-131588894D01*
X250264906Y-131589137D01*
X250280076Y-131658494D01*
X250274752Y-131686907D01*
X250217710Y-131871180D01*
X250196524Y-132072750D01*
X250214894Y-132274596D01*
X250272119Y-132469029D01*
X250274972Y-132474486D01*
X250274973Y-132474489D01*
X250279127Y-132482435D01*
X250365923Y-132648460D01*
X250365923Y-132648462D01*
X250366019Y-132648645D01*
X250365984Y-132648663D01*
X250385889Y-132714441D01*
X250370729Y-132775409D01*
X250277644Y-132947565D01*
X250275126Y-132955700D01*
X250226372Y-133113199D01*
X250217710Y-133141180D01*
X250196524Y-133342750D01*
X241292156Y-133342750D01*
X241275106Y-133155404D01*
X241262685Y-133113199D01*
X241219620Y-132966880D01*
X241217881Y-132960971D01*
X241214053Y-132953647D01*
X241137179Y-132806601D01*
X241123981Y-132781355D01*
X241124016Y-132781337D01*
X241104111Y-132715559D01*
X241119271Y-132654591D01*
X241209426Y-132487853D01*
X241212356Y-132482435D01*
X241272290Y-132288820D01*
X241293476Y-132087250D01*
X241275106Y-131885404D01*
X241269188Y-131865294D01*
X241219620Y-131696879D01*
X241219619Y-131696877D01*
X241217881Y-131690971D01*
X241218740Y-131690718D01*
X241212286Y-131625338D01*
X241225452Y-131588594D01*
X241230615Y-131581705D01*
X241233768Y-131573296D01*
X241278971Y-131452715D01*
X241281745Y-131445316D01*
X241288500Y-131383134D01*
X241288500Y-130236866D01*
X241281745Y-130174684D01*
X241230615Y-130038295D01*
X241143261Y-129921739D01*
X241026705Y-129834385D01*
X240890316Y-129783255D01*
X240828134Y-129776500D01*
X239231866Y-129776500D01*
X239169684Y-129783255D01*
X239033295Y-129834385D01*
X238916739Y-129921739D01*
X238829385Y-130038295D01*
X238778255Y-130174684D01*
X238771500Y-130236866D01*
X238771500Y-131383134D01*
X238778255Y-131445316D01*
X238781029Y-131452715D01*
X238826232Y-131573296D01*
X238826234Y-131573299D01*
X238829385Y-131581705D01*
X238834773Y-131588894D01*
X238834906Y-131589137D01*
X238850076Y-131658494D01*
X238844752Y-131686907D01*
X238787710Y-131871180D01*
X238766524Y-132072750D01*
X238784894Y-132274596D01*
X238842119Y-132469029D01*
X238844972Y-132474486D01*
X238844973Y-132474489D01*
X238849127Y-132482435D01*
X238935923Y-132648460D01*
X238935923Y-132648462D01*
X238936019Y-132648645D01*
X238935984Y-132648663D01*
X238955889Y-132714441D01*
X238940729Y-132775409D01*
X238847644Y-132947565D01*
X238845126Y-132955700D01*
X238796372Y-133113199D01*
X238787710Y-133141180D01*
X238766524Y-133342750D01*
X228592156Y-133342750D01*
X228575106Y-133155404D01*
X228562685Y-133113199D01*
X228519620Y-132966880D01*
X228517881Y-132960971D01*
X228514053Y-132953647D01*
X228437179Y-132806601D01*
X228423981Y-132781355D01*
X228424016Y-132781337D01*
X228404111Y-132715559D01*
X228419271Y-132654591D01*
X228509426Y-132487853D01*
X228512356Y-132482435D01*
X228572290Y-132288820D01*
X228593476Y-132087250D01*
X228575106Y-131885404D01*
X228569188Y-131865294D01*
X228519620Y-131696879D01*
X228519619Y-131696877D01*
X228517881Y-131690971D01*
X228518740Y-131690718D01*
X228512286Y-131625338D01*
X228525452Y-131588594D01*
X228530615Y-131581705D01*
X228533768Y-131573296D01*
X228578971Y-131452715D01*
X228581745Y-131445316D01*
X228588500Y-131383134D01*
X228588500Y-130236866D01*
X228581745Y-130174684D01*
X228530615Y-130038295D01*
X228443261Y-129921739D01*
X228326705Y-129834385D01*
X228190316Y-129783255D01*
X228128134Y-129776500D01*
X226531866Y-129776500D01*
X226469684Y-129783255D01*
X226333295Y-129834385D01*
X226216739Y-129921739D01*
X226129385Y-130038295D01*
X226078255Y-130174684D01*
X226071500Y-130236866D01*
X226071500Y-131383134D01*
X226078255Y-131445316D01*
X226081029Y-131452715D01*
X226126232Y-131573296D01*
X226126234Y-131573299D01*
X226129385Y-131581705D01*
X226134773Y-131588894D01*
X226134906Y-131589137D01*
X226150076Y-131658494D01*
X226144752Y-131686907D01*
X226087710Y-131871180D01*
X226066524Y-132072750D01*
X226084894Y-132274596D01*
X226142119Y-132469029D01*
X226144972Y-132474486D01*
X226144973Y-132474489D01*
X226149127Y-132482435D01*
X226235923Y-132648460D01*
X226235923Y-132648462D01*
X226236019Y-132648645D01*
X226235984Y-132648663D01*
X226255889Y-132714441D01*
X226240729Y-132775409D01*
X226147644Y-132947565D01*
X226145126Y-132955700D01*
X226096372Y-133113199D01*
X226087710Y-133141180D01*
X226066524Y-133342750D01*
X178308000Y-133342750D01*
X178308000Y-132072750D01*
X212096524Y-132072750D01*
X212114894Y-132274596D01*
X212172119Y-132469029D01*
X212174972Y-132474486D01*
X212174973Y-132474489D01*
X212263162Y-132643181D01*
X212263165Y-132643185D01*
X212266019Y-132648645D01*
X212266221Y-132648897D01*
X212286201Y-132714912D01*
X212271041Y-132775885D01*
X212181038Y-132942342D01*
X212176286Y-132953647D01*
X212137578Y-133078692D01*
X212137372Y-133092795D01*
X212144127Y-133096000D01*
X212913758Y-133096000D01*
X212927803Y-133096785D01*
X213076817Y-133113500D01*
X213636004Y-133113500D01*
X213786713Y-133098723D01*
X213789002Y-133098032D01*
X213809724Y-133096000D01*
X214568986Y-133096000D01*
X214582517Y-133092027D01*
X214583637Y-133084232D01*
X214549154Y-132967068D01*
X214544561Y-132955700D01*
X214456416Y-132787093D01*
X214454403Y-132784017D01*
X214453846Y-132782178D01*
X214453560Y-132781630D01*
X214453664Y-132781576D01*
X214433839Y-132716064D01*
X214448999Y-132655094D01*
X214539426Y-132487853D01*
X214542356Y-132482435D01*
X214602290Y-132288820D01*
X214623476Y-132087250D01*
X214605106Y-131885404D01*
X214599188Y-131865294D01*
X214549620Y-131696879D01*
X214549619Y-131696877D01*
X214547881Y-131690971D01*
X214548740Y-131690718D01*
X214542286Y-131625338D01*
X214555452Y-131588594D01*
X214560615Y-131581705D01*
X214563768Y-131573296D01*
X214608971Y-131452715D01*
X214611745Y-131445316D01*
X214618500Y-131383134D01*
X214618500Y-130236866D01*
X214611745Y-130174684D01*
X214560615Y-130038295D01*
X214473261Y-129921739D01*
X214356705Y-129834385D01*
X214220316Y-129783255D01*
X214158134Y-129776500D01*
X212561866Y-129776500D01*
X212499684Y-129783255D01*
X212363295Y-129834385D01*
X212246739Y-129921739D01*
X212159385Y-130038295D01*
X212108255Y-130174684D01*
X212101500Y-130236866D01*
X212101500Y-131383134D01*
X212108255Y-131445316D01*
X212111029Y-131452715D01*
X212156232Y-131573296D01*
X212156234Y-131573299D01*
X212159385Y-131581705D01*
X212164773Y-131588894D01*
X212164906Y-131589137D01*
X212180076Y-131658494D01*
X212174752Y-131686907D01*
X212117710Y-131871180D01*
X212096524Y-132072750D01*
X178308000Y-132072750D01*
X178308000Y-107229279D01*
X224651500Y-107229279D01*
X224658255Y-107291461D01*
X224709385Y-107427850D01*
X224796739Y-107544406D01*
X224913295Y-107631760D01*
X225049684Y-107682890D01*
X225111866Y-107689645D01*
X227008134Y-107689645D01*
X227070316Y-107682890D01*
X227206705Y-107631760D01*
X227323261Y-107544406D01*
X227410615Y-107427850D01*
X227435180Y-107362323D01*
X227477822Y-107305559D01*
X227544383Y-107280859D01*
X227613732Y-107296066D01*
X227633647Y-107309609D01*
X227765942Y-107419442D01*
X227789349Y-107438875D01*
X227989322Y-107555729D01*
X228205694Y-107638354D01*
X228210760Y-107639385D01*
X228210761Y-107639385D01*
X228263846Y-107650185D01*
X228432656Y-107684530D01*
X228562089Y-107689276D01*
X228658949Y-107692828D01*
X228658953Y-107692828D01*
X228664113Y-107693017D01*
X228669233Y-107692361D01*
X228669235Y-107692361D01*
X228760503Y-107680669D01*
X228893847Y-107663587D01*
X228898795Y-107662102D01*
X228898802Y-107662101D01*
X229110747Y-107598514D01*
X229115690Y-107597031D01*
X229120324Y-107594761D01*
X229319049Y-107497407D01*
X229319052Y-107497405D01*
X229323684Y-107495136D01*
X229512243Y-107360639D01*
X229676303Y-107197150D01*
X229811458Y-107009062D01*
X229876877Y-106876697D01*
X229911784Y-106806067D01*
X229911785Y-106806065D01*
X229914078Y-106801425D01*
X229961461Y-106645469D01*
X236512667Y-106645469D01*
X236512964Y-106650622D01*
X236512964Y-106650625D01*
X236521659Y-106801425D01*
X236525999Y-106876697D01*
X236527136Y-106881743D01*
X236527137Y-106881749D01*
X236554783Y-107004423D01*
X236576918Y-107102642D01*
X236578860Y-107107424D01*
X236578861Y-107107428D01*
X236662112Y-107312450D01*
X236664056Y-107317237D01*
X236738596Y-107438875D01*
X236773073Y-107495136D01*
X236785073Y-107514719D01*
X236936719Y-107689784D01*
X237114921Y-107837730D01*
X237314894Y-107954584D01*
X237531266Y-108037209D01*
X237536332Y-108038240D01*
X237536333Y-108038240D01*
X237589418Y-108049040D01*
X237758228Y-108083385D01*
X237887661Y-108088131D01*
X237984521Y-108091683D01*
X237984525Y-108091683D01*
X237989685Y-108091872D01*
X237994805Y-108091216D01*
X237994807Y-108091216D01*
X238068738Y-108081745D01*
X238219419Y-108062442D01*
X238224367Y-108060957D01*
X238224374Y-108060956D01*
X238436319Y-107997369D01*
X238441262Y-107995886D01*
X238521808Y-107956427D01*
X238644621Y-107896262D01*
X238644624Y-107896260D01*
X238649256Y-107893991D01*
X238837815Y-107759494D01*
X238882881Y-107714585D01*
X238945253Y-107680669D01*
X239016059Y-107685857D01*
X239072821Y-107728503D01*
X239089803Y-107759607D01*
X239114957Y-107826705D01*
X239202311Y-107943261D01*
X239318867Y-108030615D01*
X239455256Y-108081745D01*
X239517438Y-108088500D01*
X241413706Y-108088500D01*
X241475888Y-108081745D01*
X241612277Y-108030615D01*
X241728833Y-107943261D01*
X241816187Y-107826705D01*
X241867317Y-107690316D01*
X241874072Y-107628134D01*
X251321500Y-107628134D01*
X251328255Y-107690316D01*
X251379385Y-107826705D01*
X251466739Y-107943261D01*
X251583295Y-108030615D01*
X251719684Y-108081745D01*
X251781866Y-108088500D01*
X253678134Y-108088500D01*
X253740316Y-108081745D01*
X253876705Y-108030615D01*
X253993261Y-107943261D01*
X254080615Y-107826705D01*
X254105180Y-107761178D01*
X254147822Y-107704414D01*
X254214383Y-107679714D01*
X254283732Y-107694921D01*
X254303647Y-107708464D01*
X254368724Y-107762492D01*
X254459349Y-107837730D01*
X254659322Y-107954584D01*
X254875694Y-108037209D01*
X254880760Y-108038240D01*
X254880761Y-108038240D01*
X254933846Y-108049040D01*
X255102656Y-108083385D01*
X255232089Y-108088131D01*
X255328949Y-108091683D01*
X255328953Y-108091683D01*
X255334113Y-108091872D01*
X255339233Y-108091216D01*
X255339235Y-108091216D01*
X255413166Y-108081745D01*
X255563847Y-108062442D01*
X255568795Y-108060957D01*
X255568802Y-108060956D01*
X255780747Y-107997369D01*
X255785690Y-107995886D01*
X255866236Y-107956427D01*
X255989049Y-107896262D01*
X255989052Y-107896260D01*
X255993684Y-107893991D01*
X256182243Y-107759494D01*
X256314062Y-107628134D01*
X264021500Y-107628134D01*
X264028255Y-107690316D01*
X264079385Y-107826705D01*
X264166739Y-107943261D01*
X264283295Y-108030615D01*
X264419684Y-108081745D01*
X264481866Y-108088500D01*
X266378134Y-108088500D01*
X266440316Y-108081745D01*
X266576705Y-108030615D01*
X266693261Y-107943261D01*
X266780615Y-107826705D01*
X266805180Y-107761178D01*
X266847822Y-107704414D01*
X266914383Y-107679714D01*
X266983732Y-107694921D01*
X267003647Y-107708464D01*
X267068724Y-107762492D01*
X267159349Y-107837730D01*
X267359322Y-107954584D01*
X267575694Y-108037209D01*
X267580760Y-108038240D01*
X267580761Y-108038240D01*
X267633846Y-108049040D01*
X267802656Y-108083385D01*
X267932089Y-108088131D01*
X268028949Y-108091683D01*
X268028953Y-108091683D01*
X268034113Y-108091872D01*
X268039233Y-108091216D01*
X268039235Y-108091216D01*
X268113166Y-108081745D01*
X268263847Y-108062442D01*
X268268795Y-108060957D01*
X268268802Y-108060956D01*
X268480747Y-107997369D01*
X268485690Y-107995886D01*
X268566236Y-107956427D01*
X268689049Y-107896262D01*
X268689052Y-107896260D01*
X268693684Y-107893991D01*
X268882243Y-107759494D01*
X269046303Y-107596005D01*
X269181458Y-107407917D01*
X269203343Y-107363637D01*
X269281784Y-107204922D01*
X269281785Y-107204920D01*
X269284078Y-107200280D01*
X269351408Y-106978671D01*
X269381640Y-106749041D01*
X269383327Y-106680000D01*
X269374669Y-106574689D01*
X269364773Y-106454318D01*
X269364772Y-106454312D01*
X269364349Y-106449167D01*
X269322145Y-106281145D01*
X269309184Y-106229544D01*
X269309183Y-106229540D01*
X269307925Y-106224533D01*
X269305866Y-106219797D01*
X269217630Y-106016868D01*
X269217628Y-106016865D01*
X269215570Y-106012131D01*
X269089764Y-105817665D01*
X268933887Y-105646358D01*
X268929836Y-105643159D01*
X268929832Y-105643155D01*
X268756177Y-105506011D01*
X268756172Y-105506008D01*
X268752123Y-105502810D01*
X268747607Y-105500317D01*
X268747604Y-105500315D01*
X268553879Y-105393373D01*
X268553875Y-105393371D01*
X268549355Y-105390876D01*
X268544486Y-105389152D01*
X268544482Y-105389150D01*
X268335903Y-105315288D01*
X268335899Y-105315287D01*
X268331028Y-105313562D01*
X268325935Y-105312655D01*
X268325932Y-105312654D01*
X268108095Y-105273851D01*
X268108089Y-105273850D01*
X268103006Y-105272945D01*
X268030096Y-105272054D01*
X267876581Y-105270179D01*
X267876579Y-105270179D01*
X267871411Y-105270116D01*
X267642464Y-105305150D01*
X267422314Y-105377106D01*
X267417726Y-105379494D01*
X267417722Y-105379496D01*
X267300940Y-105440289D01*
X267216872Y-105484052D01*
X267212739Y-105487155D01*
X267212736Y-105487157D01*
X267035790Y-105620012D01*
X267031655Y-105623117D01*
X267014170Y-105641414D01*
X266952646Y-105676844D01*
X266881733Y-105673387D01*
X266823947Y-105632141D01*
X266805094Y-105598592D01*
X266783768Y-105541705D01*
X266783767Y-105541703D01*
X266780615Y-105533295D01*
X266693261Y-105416739D01*
X266576705Y-105329385D01*
X266440316Y-105278255D01*
X266378134Y-105271500D01*
X264481866Y-105271500D01*
X264419684Y-105278255D01*
X264283295Y-105329385D01*
X264166739Y-105416739D01*
X264079385Y-105533295D01*
X264028255Y-105669684D01*
X264021500Y-105731866D01*
X264021500Y-107628134D01*
X256314062Y-107628134D01*
X256346303Y-107596005D01*
X256481458Y-107407917D01*
X256503343Y-107363637D01*
X256581784Y-107204922D01*
X256581785Y-107204920D01*
X256584078Y-107200280D01*
X256651408Y-106978671D01*
X256681640Y-106749041D01*
X256683327Y-106680000D01*
X256674669Y-106574689D01*
X256664773Y-106454318D01*
X256664772Y-106454312D01*
X256664349Y-106449167D01*
X256622145Y-106281145D01*
X256609184Y-106229544D01*
X256609183Y-106229540D01*
X256607925Y-106224533D01*
X256605866Y-106219797D01*
X256517630Y-106016868D01*
X256517628Y-106016865D01*
X256515570Y-106012131D01*
X256389764Y-105817665D01*
X256233887Y-105646358D01*
X256229836Y-105643159D01*
X256229832Y-105643155D01*
X256056177Y-105506011D01*
X256056172Y-105506008D01*
X256052123Y-105502810D01*
X256047607Y-105500317D01*
X256047604Y-105500315D01*
X255853879Y-105393373D01*
X255853875Y-105393371D01*
X255849355Y-105390876D01*
X255844486Y-105389152D01*
X255844482Y-105389150D01*
X255635903Y-105315288D01*
X255635899Y-105315287D01*
X255631028Y-105313562D01*
X255625935Y-105312655D01*
X255625932Y-105312654D01*
X255408095Y-105273851D01*
X255408089Y-105273850D01*
X255403006Y-105272945D01*
X255330096Y-105272054D01*
X255176581Y-105270179D01*
X255176579Y-105270179D01*
X255171411Y-105270116D01*
X254942464Y-105305150D01*
X254722314Y-105377106D01*
X254717726Y-105379494D01*
X254717722Y-105379496D01*
X254600940Y-105440289D01*
X254516872Y-105484052D01*
X254512739Y-105487155D01*
X254512736Y-105487157D01*
X254335790Y-105620012D01*
X254331655Y-105623117D01*
X254314170Y-105641414D01*
X254252646Y-105676844D01*
X254181733Y-105673387D01*
X254123947Y-105632141D01*
X254105094Y-105598592D01*
X254083768Y-105541705D01*
X254083767Y-105541703D01*
X254080615Y-105533295D01*
X253993261Y-105416739D01*
X253876705Y-105329385D01*
X253740316Y-105278255D01*
X253678134Y-105271500D01*
X251781866Y-105271500D01*
X251719684Y-105278255D01*
X251583295Y-105329385D01*
X251466739Y-105416739D01*
X251379385Y-105533295D01*
X251328255Y-105669684D01*
X251321500Y-105731866D01*
X251321500Y-107628134D01*
X241874072Y-107628134D01*
X241874072Y-105731866D01*
X241867317Y-105669684D01*
X241816187Y-105533295D01*
X241728833Y-105416739D01*
X241612277Y-105329385D01*
X241475888Y-105278255D01*
X241413706Y-105271500D01*
X239517438Y-105271500D01*
X239455256Y-105278255D01*
X239318867Y-105329385D01*
X239202311Y-105416739D01*
X239114957Y-105533295D01*
X239111805Y-105541703D01*
X239111804Y-105541705D01*
X239091110Y-105596906D01*
X239048469Y-105653671D01*
X238981907Y-105678371D01*
X238912558Y-105663164D01*
X238889739Y-105646666D01*
X238889459Y-105646358D01*
X238756945Y-105541705D01*
X238711749Y-105506011D01*
X238711744Y-105506008D01*
X238707695Y-105502810D01*
X238703179Y-105500317D01*
X238703176Y-105500315D01*
X238509451Y-105393373D01*
X238509447Y-105393371D01*
X238504927Y-105390876D01*
X238500058Y-105389152D01*
X238500054Y-105389150D01*
X238291475Y-105315288D01*
X238291471Y-105315287D01*
X238286600Y-105313562D01*
X238281507Y-105312655D01*
X238281504Y-105312654D01*
X238063667Y-105273851D01*
X238063661Y-105273850D01*
X238058578Y-105272945D01*
X237985668Y-105272054D01*
X237832153Y-105270179D01*
X237832151Y-105270179D01*
X237826983Y-105270116D01*
X237598036Y-105305150D01*
X237377886Y-105377106D01*
X237373298Y-105379494D01*
X237373294Y-105379496D01*
X237256512Y-105440289D01*
X237172444Y-105484052D01*
X237168311Y-105487155D01*
X237168308Y-105487157D01*
X236991362Y-105620012D01*
X236987227Y-105623117D01*
X236827211Y-105790564D01*
X236824297Y-105794836D01*
X236824296Y-105794837D01*
X236796349Y-105835806D01*
X236696691Y-105981899D01*
X236599174Y-106191981D01*
X236537279Y-106415169D01*
X236512667Y-106645469D01*
X229961461Y-106645469D01*
X229981408Y-106579816D01*
X230011640Y-106350186D01*
X230013327Y-106281145D01*
X230005612Y-106187301D01*
X229994773Y-106055463D01*
X229994772Y-106055457D01*
X229994349Y-106050312D01*
X229966137Y-105937995D01*
X229939184Y-105830689D01*
X229939183Y-105830685D01*
X229937925Y-105825678D01*
X229898620Y-105735283D01*
X229847630Y-105618013D01*
X229847628Y-105618010D01*
X229845570Y-105613276D01*
X229719764Y-105418810D01*
X229563887Y-105247503D01*
X229559836Y-105244304D01*
X229559832Y-105244300D01*
X229386177Y-105107156D01*
X229386172Y-105107153D01*
X229382123Y-105103955D01*
X229377607Y-105101462D01*
X229377604Y-105101460D01*
X229183879Y-104994518D01*
X229183875Y-104994516D01*
X229179355Y-104992021D01*
X229174486Y-104990297D01*
X229174482Y-104990295D01*
X228965903Y-104916433D01*
X228965899Y-104916432D01*
X228961028Y-104914707D01*
X228955935Y-104913800D01*
X228955932Y-104913799D01*
X228738095Y-104874996D01*
X228738089Y-104874995D01*
X228733006Y-104874090D01*
X228660096Y-104873199D01*
X228506581Y-104871324D01*
X228506579Y-104871324D01*
X228501411Y-104871261D01*
X228272464Y-104906295D01*
X228052314Y-104978251D01*
X228047726Y-104980639D01*
X228047722Y-104980641D01*
X227851461Y-105082808D01*
X227846872Y-105085197D01*
X227842739Y-105088300D01*
X227842736Y-105088302D01*
X227770088Y-105142848D01*
X227661655Y-105224262D01*
X227644170Y-105242559D01*
X227582646Y-105277989D01*
X227511733Y-105274532D01*
X227453947Y-105233286D01*
X227435094Y-105199737D01*
X227413768Y-105142850D01*
X227413767Y-105142848D01*
X227410615Y-105134440D01*
X227323261Y-105017884D01*
X227206705Y-104930530D01*
X227070316Y-104879400D01*
X227008134Y-104872645D01*
X225111866Y-104872645D01*
X225049684Y-104879400D01*
X224913295Y-104930530D01*
X224796739Y-105017884D01*
X224709385Y-105134440D01*
X224658255Y-105270829D01*
X224651500Y-105333011D01*
X224651500Y-107229279D01*
X178308000Y-107229279D01*
X178308000Y-88264000D01*
X178328002Y-88195879D01*
X178381658Y-88149386D01*
X178434000Y-88138000D01*
X278766000Y-88138000D01*
X278834121Y-88158002D01*
G37*
%TD.AperFunction*%
%TD*%
M02*
