M48
; DRILL file {KiCad (6.0.0)} date Wed Nov  6 11:01:57 2024
; FORMAT={-:-/ absolute / inch / decimal}
; #@! TF.CreationDate,2024-11-06T11:01:57+02:00
; #@! TF.GenerationSoftware,Kicad,Pcbnew,(6.0.0)
; #@! TF.FileFunction,Plated,1,2,PTH
FMAT,2
INCH
; #@! TA.AperFunction,Plated,PTH,ViaDrill
T1C0.0157
; #@! TA.AperFunction,Plated,PTH,ComponentDrill
T2C0.0295
; #@! TA.AperFunction,Plated,PTH,ComponentDrill
T3C0.0354
; #@! TA.AperFunction,Plated,PTH,ViaDrill
T4C0.0394
%
G90
G05
T1
X7.55Y-5.4
X7.55Y-5.8
T2
X8.4Y-5.15
X8.4Y-5.2
X8.4Y-5.25
X8.95Y-5.15
X8.95Y-5.2
X8.95Y-5.25
X9.45Y-5.15
X9.45Y-5.2
X9.45Y-5.25
X9.9Y-5.15
X9.9Y-5.2
X9.9Y-5.25
X10.45Y-5.15
X10.45Y-5.2
X10.45Y-5.25
T3
X8.9Y-4.1843
X9.0Y-4.1843
X9.3671Y-4.2
X9.4671Y-4.2
X9.95Y-4.2
X10.05Y-4.2
X10.45Y-4.2
X10.55Y-4.2
T4
X7.25Y-6.25
X7.35Y-6.2
T0
M30
