%TF.GenerationSoftware,KiCad,Pcbnew,(6.0.0)*%
%TF.CreationDate,2024-11-06T11:00:43+02:00*%
%TF.ProjectId,second_pr.kicad_sch-1,7365636f-6e64-45f7-9072-2e6b69636164,0*%
%TF.SameCoordinates,Original*%
%TF.FileFunction,Copper,L1,Top*%
%TF.FilePolarity,Positive*%
%FSLAX46Y46*%
G04 Gerber Fmt 4.6, Leading zero omitted, Abs format (unit mm)*
G04 Created by KiCad (PCBNEW (6.0.0)) date 2024-11-06 11:00:43*
%MOMM*%
%LPD*%
G01*
G04 APERTURE LIST*
G04 Aperture macros list*
%AMRoundRect*
0 Rectangle with rounded corners*
0 $1 Rounding radius*
0 $2 $3 $4 $5 $6 $7 $8 $9 X,Y pos of 4 corners*
0 Add a 4 corners polygon primitive as box body*
4,1,4,$2,$3,$4,$5,$6,$7,$8,$9,$2,$3,0*
0 Add four circle primitives for the rounded corners*
1,1,$1+$1,$2,$3*
1,1,$1+$1,$4,$5*
1,1,$1+$1,$6,$7*
1,1,$1+$1,$8,$9*
0 Add four rect primitives between the rounded corners*
20,1,$1+$1,$2,$3,$4,$5,0*
20,1,$1+$1,$4,$5,$6,$7,0*
20,1,$1+$1,$6,$7,$8,$9,0*
20,1,$1+$1,$8,$9,$2,$3,0*%
%AMFreePoly0*
4,1,85,0.032093,0.369917,0.152523,0.368341,0.408529,0.326647,0.655562,0.247572,0.888192,0.132851,1.101311,-0.014995,1.290235,-0.192717,1.450816,-0.396412,1.579524,-0.621606,1.673533,-0.863350,1.730778,-1.116334,1.750000,-1.375000,1.747602,-1.466588,1.714868,-1.723894,1.644462,-1.973535,1.537930,-2.210028,1.397612,-2.428176,1.226591,-2.623188,1.028624,-2.790780,0.808060,-2.927269,
0.569744,-3.029658,0.318912,-3.095696,0.061074,-3.123934,-0.198106,-3.113751,-0.452933,-3.065370,-0.697811,-2.979855,-0.927359,-2.859084,-1.136534,-2.705710,-1.320742,-2.523103,-1.475935,-2.315274,-1.598705,-2.086789,-1.686353,-1.842667,-1.736956,-1.588271,-1.747874,-1.360970,-1.004741,-1.360970,-0.988331,-1.556393,-0.934276,-1.744906,-0.844634,-1.919330,-0.722821,-2.073020,-0.573475,-2.200123,
-0.402286,-2.295797,-0.215774,-2.356398,-0.021044,-2.379619,0.174488,-2.364573,0.363374,-2.311835,0.538420,-2.223414,0.692957,-2.102676,0.821099,-1.954222,0.917966,-1.783705,0.979868,-1.597621,1.004447,-1.403057,1.004839,-1.375000,0.985702,-1.179826,0.929020,-0.992086,0.836952,-0.818931,0.713004,-0.666956,0.561899,-0.541951,0.389391,-0.448676,0.202051,-0.390685,0.021074,-0.371662,
0.000000,-0.375000,-0.016747,-0.372348,-0.188288,-0.387959,-0.376419,-0.443330,-0.550213,-0.534187,-0.703049,-0.657070,-0.829106,-0.807299,-0.923583,-0.979152,-0.982881,-1.166082,-1.004741,-1.360970,-1.747874,-1.360970,-1.749400,-1.329190,-1.723414,-1.071116,-1.659566,-0.819717,-1.559261,-0.580517,-1.424702,-0.358770,-1.258845,-0.159348,-1.065333,0.013368,-0.848417,0.155584,-0.612863,0.264176,
-0.363845,0.336758,-0.106835,0.371736,-0.027193,0.370693,0.000000,0.375000,0.032093,0.369917,0.032093,0.369917,$1*%
G04 Aperture macros list end*
%TA.AperFunction,SMDPad,CuDef*%
%ADD10FreePoly0,0.000000*%
%TD*%
%TA.AperFunction,SMDPad,CuDef*%
%ADD11C,1.000000*%
%TD*%
%TA.AperFunction,SMDPad,CuDef*%
%ADD12RoundRect,0.250000X-1.075000X0.312500X-1.075000X-0.312500X1.075000X-0.312500X1.075000X0.312500X0*%
%TD*%
%TA.AperFunction,ComponentPad*%
%ADD13R,1.800000X1.800000*%
%TD*%
%TA.AperFunction,ComponentPad*%
%ADD14C,1.800000*%
%TD*%
%TA.AperFunction,ComponentPad*%
%ADD15R,1.500000X1.050000*%
%TD*%
%TA.AperFunction,ComponentPad*%
%ADD16O,1.500000X1.050000*%
%TD*%
%TA.AperFunction,SMDPad,CuDef*%
%ADD17RoundRect,0.250000X-1.100000X0.325000X-1.100000X-0.325000X1.100000X-0.325000X1.100000X0.325000X0*%
%TD*%
%TA.AperFunction,ViaPad*%
%ADD18C,0.800000*%
%TD*%
%TA.AperFunction,ViaPad*%
%ADD19C,2.000000*%
%TD*%
%TA.AperFunction,Conductor*%
%ADD20C,0.250000*%
%TD*%
G04 APERTURE END LIST*
D10*
%TO.P,MK1,1,-*%
%TO.N,GND*%
X191770000Y-145945000D03*
D11*
%TO.P,MK1,2,+*%
%TO.N,Net-(C1-Pad1)*%
X191770000Y-147320000D03*
%TD*%
D12*
%TO.P,R7,1*%
%TO.N,Net-(Q5-Pad3)*%
X265430000Y-151130000D03*
%TO.P,R7,2*%
%TO.N,GND*%
X265430000Y-154055000D03*
%TD*%
D13*
%TO.P,D1,1,K*%
%TO.N,Net-(D1-Pad1)*%
X226060000Y-106281145D03*
D14*
%TO.P,D1,2,A*%
%TO.N,+9V*%
X228600000Y-106281145D03*
%TD*%
D12*
%TO.P,R4,1*%
%TO.N,Net-(Q2-Pad3)*%
X228600000Y-151130000D03*
%TO.P,R4,2*%
%TO.N,GND*%
X228600000Y-154055000D03*
%TD*%
D15*
%TO.P,Q1,1,C*%
%TO.N,Net-(Q1-Pad1)*%
X213360000Y-130810000D03*
D16*
%TO.P,Q1,2,B*%
%TO.N,Net-(C1-Pad2)*%
X213360000Y-132080000D03*
%TO.P,Q1,3,E*%
%TO.N,GND*%
X213360000Y-133350000D03*
%TD*%
D12*
%TO.P,R5,1*%
%TO.N,Net-(Q3-Pad3)*%
X240030000Y-150937500D03*
%TO.P,R5,2*%
%TO.N,GND*%
X240030000Y-153862500D03*
%TD*%
%TO.P,R1,1*%
%TO.N,+9V*%
X193040000Y-96327500D03*
%TO.P,R1,2*%
%TO.N,Net-(C1-Pad1)*%
X193040000Y-99252500D03*
%TD*%
D13*
%TO.P,D4,1,K*%
%TO.N,Net-(D4-Pad1)*%
X265430000Y-106680000D03*
D14*
%TO.P,D4,2,A*%
%TO.N,+9V*%
X267970000Y-106680000D03*
%TD*%
D12*
%TO.P,R3,1*%
%TO.N,+9V*%
X211012500Y-96327500D03*
%TO.P,R3,2*%
%TO.N,Net-(Q1-Pad1)*%
X211012500Y-99252500D03*
%TD*%
D15*
%TO.P,Q4,1,C*%
%TO.N,Net-(D3-Pad1)*%
X251460000Y-130810000D03*
D16*
%TO.P,Q4,2,B*%
%TO.N,Net-(Q1-Pad1)*%
X251460000Y-132080000D03*
%TO.P,Q4,3,E*%
%TO.N,Net-(Q4-Pad3)*%
X251460000Y-133350000D03*
%TD*%
D15*
%TO.P,Q5,1,C*%
%TO.N,Net-(D4-Pad1)*%
X265430000Y-130810000D03*
D16*
%TO.P,Q5,2,B*%
%TO.N,Net-(Q1-Pad1)*%
X265430000Y-132080000D03*
%TO.P,Q5,3,E*%
%TO.N,Net-(Q5-Pad3)*%
X265430000Y-133350000D03*
%TD*%
D12*
%TO.P,R6,1*%
%TO.N,Net-(Q4-Pad3)*%
X251460000Y-150937500D03*
%TO.P,R6,2*%
%TO.N,GND*%
X251460000Y-153862500D03*
%TD*%
D15*
%TO.P,Q3,1,C*%
%TO.N,Net-(D2-Pad1)*%
X240030000Y-130810000D03*
D16*
%TO.P,Q3,2,B*%
%TO.N,Net-(Q1-Pad1)*%
X240030000Y-132080000D03*
%TO.P,Q3,3,E*%
%TO.N,Net-(Q3-Pad3)*%
X240030000Y-133350000D03*
%TD*%
D15*
%TO.P,Q2,1,C*%
%TO.N,Net-(D1-Pad1)*%
X227330000Y-130810000D03*
D16*
%TO.P,Q2,2,B*%
%TO.N,Net-(Q1-Pad1)*%
X227330000Y-132080000D03*
%TO.P,Q2,3,E*%
%TO.N,Net-(Q2-Pad3)*%
X227330000Y-133350000D03*
%TD*%
D12*
%TO.P,R2,1*%
%TO.N,+9V*%
X202122500Y-96327500D03*
%TO.P,R2,2*%
%TO.N,Net-(C1-Pad2)*%
X202122500Y-99252500D03*
%TD*%
D13*
%TO.P,D3,1,K*%
%TO.N,Net-(D3-Pad1)*%
X252730000Y-106680000D03*
D14*
%TO.P,D3,2,A*%
%TO.N,+9V*%
X255270000Y-106680000D03*
%TD*%
D13*
%TO.P,D2,1,K*%
%TO.N,Net-(D2-Pad1)*%
X240465572Y-106680000D03*
D14*
%TO.P,D2,2,A*%
%TO.N,+9V*%
X237925572Y-106680000D03*
%TD*%
D17*
%TO.P,C1,1*%
%TO.N,Net-(C1-Pad1)*%
X191770000Y-127000000D03*
%TO.P,C1,2*%
%TO.N,Net-(C1-Pad2)*%
X191770000Y-129950000D03*
%TD*%
D18*
%TO.N,Net-(C1-Pad2)*%
X191770000Y-137160000D03*
X191770000Y-147320000D03*
D19*
%TO.N,+9V*%
X184150000Y-158750000D03*
%TO.N,GND*%
X186690000Y-157480000D03*
%TD*%
D20*
%TO.N,Net-(C1-Pad1)*%
X191565000Y-126795000D02*
X191770000Y-127000000D01*
X191770000Y-127000000D02*
X191770000Y-100522500D01*
X191770000Y-100522500D02*
X193040000Y-99252500D01*
%TO.N,Net-(C1-Pad2)*%
X201930000Y-125730000D02*
X208280000Y-132080000D01*
X197915000Y-129745000D02*
X193245000Y-129745000D01*
X202122500Y-125537500D02*
X197915000Y-129745000D01*
X197915000Y-129745000D02*
X201930000Y-125730000D01*
X191770000Y-137160000D02*
X191770000Y-129950000D01*
X208280000Y-132080000D02*
X213360000Y-132080000D01*
X202122500Y-99252500D02*
X202122500Y-125537500D01*
%TO.N,Net-(D1-Pad1)*%
X226060000Y-106281145D02*
X226060000Y-129540000D01*
X226060000Y-129540000D02*
X227330000Y-130810000D01*
%TO.N,+9V*%
X256540000Y-105410000D02*
X256540000Y-97790000D01*
X193040000Y-96327500D02*
X202122500Y-96327500D01*
X210820000Y-96520000D02*
X218838855Y-96520000D01*
X238977786Y-107732214D02*
X238977786Y-105718764D01*
X267970000Y-99060000D02*
X267970000Y-106680000D01*
X266700000Y-97790000D02*
X267970000Y-99060000D01*
X237526717Y-106281145D02*
X237925572Y-106680000D01*
X228600000Y-106281145D02*
X237526717Y-106281145D01*
X255270000Y-106680000D02*
X256540000Y-105410000D01*
X246906550Y-97790000D02*
X256540000Y-97790000D01*
X238977786Y-105718764D02*
X246906550Y-97790000D01*
X256540000Y-97790000D02*
X266700000Y-97790000D01*
X238977786Y-107732214D02*
X237925572Y-106680000D01*
X202122500Y-96327500D02*
X211012500Y-96327500D01*
X184342500Y-96327500D02*
X193040000Y-96327500D01*
X218838855Y-96520000D02*
X228600000Y-106281145D01*
X184150000Y-158750000D02*
X184150000Y-96520000D01*
X184150000Y-96520000D02*
X184342500Y-96327500D01*
X254045489Y-107904511D02*
X255270000Y-106680000D01*
%TO.N,Net-(D2-Pad1)*%
X240465572Y-130374428D02*
X240030000Y-130810000D01*
X240465572Y-106680000D02*
X240465572Y-130374428D01*
%TO.N,Net-(D3-Pad1)*%
X252730000Y-106680000D02*
X252730000Y-129540000D01*
X252730000Y-129540000D02*
X251460000Y-130810000D01*
%TO.N,Net-(D4-Pad1)*%
X265430000Y-106680000D02*
X265430000Y-130810000D01*
%TO.N,GND*%
X228600000Y-154055000D02*
X227715000Y-154940000D01*
X265237500Y-153862500D02*
X251460000Y-153862500D01*
X213360000Y-133350000D02*
X204365000Y-133350000D01*
X191770000Y-152400000D02*
X191770000Y-148144511D01*
X186690000Y-157480000D02*
X191770000Y-152400000D01*
X228792500Y-153862500D02*
X240030000Y-153862500D01*
X196850000Y-154940000D02*
X191770000Y-149860000D01*
X191770000Y-149860000D02*
X191770000Y-148144511D01*
X251460000Y-153862500D02*
X240030000Y-153862500D01*
X204365000Y-133350000D02*
X191770000Y-145945000D01*
X228600000Y-154055000D02*
X228792500Y-153862500D01*
X265430000Y-154055000D02*
X265237500Y-153862500D01*
X227715000Y-154940000D02*
X196850000Y-154940000D01*
%TO.N,Net-(Q1-Pad1)*%
X251460000Y-132080000D02*
X265430000Y-132080000D01*
X211012500Y-99252500D02*
X213360000Y-101600000D01*
X214855000Y-132080000D02*
X227330000Y-132080000D01*
X213360000Y-101600000D02*
X213360000Y-130810000D01*
X213585000Y-130810000D02*
X214855000Y-132080000D01*
X213360000Y-130810000D02*
X213585000Y-130810000D01*
X227330000Y-132080000D02*
X240030000Y-132080000D01*
X240030000Y-132080000D02*
X251460000Y-132080000D01*
%TO.N,Net-(Q2-Pad3)*%
X227330000Y-133350000D02*
X227330000Y-149860000D01*
X227330000Y-149860000D02*
X228600000Y-151130000D01*
%TO.N,Net-(Q3-Pad3)*%
X240030000Y-133350000D02*
X240030000Y-150937500D01*
%TO.N,Net-(Q4-Pad3)*%
X251460000Y-133350000D02*
X251460000Y-150937500D01*
%TO.N,Net-(Q5-Pad3)*%
X265430000Y-133350000D02*
X265430000Y-151130000D01*
%TD*%
M02*
